<svg xmlns="http://www.w3.org/2000/svg" viewBox="0 0 60 60" width="512" height="512"><style>.a{fill:#0aabe1;}</style><path d="M30 26c3.9 0 7-3.1 7-7s-3.1-7-7-7 -7 3.1-7 7S26.1 26 30 26zM30 14c2.8 0 5 2.2 5 5s-2.2 5-5 5 -5-2.2-5-5S27.2 14 30 14z" class="a"/><path d="M29.8 54.8L45.2 32.6c5.8-7.7 4.9-20.3-1.8-27C39.8 2 34.9 0 29.8 0s-9.9 2-13.6 5.6c-6.7 6.7-7.5 19.3-1.8 27L29.8 54.8zM17.7 7C20.9 3.8 25.2 2 29.8 2s8.9 1.8 12.1 5c6.1 6 6.8 17.4 1.6 24.4L29.8 51.2 16.1 31.4C10.9 24.5 11.6 13.1 17.7 7z" class="a"/><path d="M42.1 43c-0.5-0.1-1 0.3-1.1 0.9s0.3 1 0.9 1.1C52.4 46.2 58 49.6 58 51.5c0 2.7-10.7 6.5-28 6.5S2 54.2 2 51.5c0-1.9 5.6-5.3 16.1-6.5 0.5-0.1 0.9-0.6 0.9-1.1 -0.1-0.5-0.6-0.9-1.1-0.9C7.4 44.2 0 47.7 0 51.5 0 55.7 10.3 60 30 60s30-4.3 30-8.5C60 47.7 52.6 44.2 42.1 43z" class="a"/></svg>
