<svg xmlns="http://www.w3.org/2000/svg" viewBox="0 0 512 512" width="512" height="512"><style>.a{fill:#0aabe1;}</style><path d="M511.9 195.7c-0.1-0.6-0.2-1.2-0.3-1.7 -0.1-0.5-0.3-1-0.5-1.5 -0.2-0.5-0.5-0.9-0.9-1.3 -0.3-0.5-0.7-0.9-1.1-1.3 -0.1-0.1-0.2-0.3-0.3-0.4l-82.1-63.7V59.7c0-14.1-11.5-25.6-25.6-25.6h-92.5L271.5 5.4c-9.1-7.1-22-7.1-31.1 0l-37 28.7h-92.5c-14.1 0-25.6 11.5-25.6 25.6v66.1L3.3 189.5c-0.1 0.1-0.2 0.3-0.3 0.4 -0.4 0.4-0.8 0.8-1.1 1.3 -0.3 0.4-0.6 0.8-0.9 1.3 -0.2 0.5-0.4 1-0.5 1.5 -0.2 0.6-0.3 1.1-0.3 1.7 0 0.2-0.1 0.3-0.1 0.5V486.4c0 5.4 1.8 10.7 5 15.1 0.1 0.1 0.1 0.2 0.1 0.2 0.1 0.1 0.2 0.1 0.3 0.2 4.8 6.3 12.3 10 20.2 10.1h460.8c8 0 15.4-3.8 20.2-10.1 0.1-0.1 0.2-0.1 0.2-0.2 0.1-0.1 0.1-0.2 0.1-0.2 3.2-4.4 5-9.6 5-15.1V196.2C512 196.1 511.9 195.9 511.9 195.7zM250.9 18.8c3-2.4 7.2-2.4 10.2 0l19.7 15.3h-49.5L250.9 18.8zM27.7 494.9l223.1-173.3c3-2.4 7.2-2.4 10.2 0l223.2 173.3H27.7zM494.9 481.6L271.5 308.1c-9.1-7.1-22-7.1-31.1 0L17 481.6V209.2L156.9 317.8c3.7 2.9 9.1 2.2 12-1.5 2.9-3.7 2.2-9.1-1.5-12L25.3 194l60-46.7v65.9c0 4.7 3.8 8.5 8.5 8.5 4.7 0 8.5-3.8 8.5-8.5v-153.6c0-4.7 3.8-8.5 8.5-8.5h290.1c4.7 0 8.5 3.8 8.5 8.5v153.6c0 4.7 3.8 8.5 8.5 8.5s8.5-3.8 8.5-8.5v-65.9l60 46.7 -142.3 110.5c-2.4 1.9-3.7 4.9-3.3 7.9s2.4 5.6 5.3 6.8c2.8 1.1 6.1 0.7 8.5-1.2l140.1-108.8V481.6z" class="a"/><path d="M358.4 204.8v-34.1c0-56.6-45.8-102.4-102.4-102.4 -56.6 0-102.4 45.8-102.4 102.4s45.8 102.4 102.4 102.4c4.7 0 8.5-3.8 8.5-8.5s-3.8-8.5-8.5-8.5c-47.1 0-85.3-38.2-85.3-85.3s38.2-85.3 85.3-85.3 85.3 38.2 85.3 85.3v34.1c0 9.4-7.6 17.1-17.1 17.1s-17.1-7.6-17.1-17.1v-34.1c0-4.7-3.8-8.5-8.5-8.5s-8.5 3.8-8.5 8.5c0 18.9-15.3 34.1-34.1 34.1 -18.9 0-34.1-15.3-34.1-34.1s15.3-34.1 34.1-34.1c4.7 0 8.5-3.8 8.5-8.5s-3.8-8.5-8.5-8.5c-22.9-0.1-43.1 15.1-49.4 37.2 -6.3 22 2.8 45.6 22.3 57.6 19.5 12 44.6 9.7 61.5-5.8 1.9 18 17.5 31.5 35.7 30.5C344.3 237.9 358.4 222.9 358.4 204.8z" class="a"/></svg>
