<svg xmlns="http://www.w3.org/2000/svg" viewBox="0 0 496 496" width="512" height="512"><style>.a{fill:#0aabe1;}</style><path d="M402.5 432l-18.5-55.6c-6.5-19.4-23-33.7-43.1-37.4l-53.5-9.7v-4.1c9.3-5.4 17.4-12.6 23.8-21.2h16.2c13.2 0 24-10.8 24-24v-96c0-57.3-46.7-104-104-104s-104 46.7-104 104v56c0 15.4 11 28.3 25.5 31.3 4.5 23 18.9 42.4 38.5 53.8v4.1l-53.5 9.7c-20.1 3.7-36.6 18-43.1 37.4l-3.2 9.6 -27.2-27.2c-3.1-3.1-3.1-8.2 0-11.3l31.6-31.6 -59.3-59.3L17 292.3c-10.6 10.6-16.4 24.6-16.4 39.6s5.8 29 16.4 39.6l108.1 108.1C135.7 490.2 149.7 496 164.7 496c15 0 29-5.8 39.3-16.2l39-35.7L230.9 432H402.5zM335.4 280c0 4.4-3.6 8-8 8H320.7c2.3-5.3 4.1-10.9 5.2-16.7 3.4-0.7 6.6-2.1 9.5-3.8V280zM327.4 253.8v-27.6c4.8 2.8 8 7.9 8 13.8S332.2 251 327.4 253.8zM167.4 253.8c-4.8-2.8-8-7.9-8-13.8s3.2-11 8-13.8V253.8zM167.4 200v9.1c-2.8 0.7-5.5 1.9-8 3.3V184c0-48.5 39.5-88 88-88s88 39.5 88 88v28.4c-2.5-1.4-5.2-2.6-8-3.3V200h-8c-23.7 0-45.9-9.2-62.6-25.9l-9.4-9.4 -9.4 9.4C221.3 190.8 199.1 200 175.4 200H167.4zM183.4 256v-40.3c24-1.8 46.4-11.7 64-28.4 17.6 16.7 40 26.6 64 28.4V256c0 11.7-3.2 22.6-8.7 32h-55.3v16h42.2c-11.3 9.9-26 16-42.2 16C212.1 320 183.4 291.3 183.4 256zM271.4 332.3v0.4l-24 24 -24-24v-0.4c7.6 2.4 15.6 3.7 24 3.7S263.8 334.7 271.4 332.3zM126 381.5c4.6-13.9 16.4-24.1 30.8-26.7l55.9-10.2 34.7 34.7 34.7-34.7 55.9 10.2c14.4 2.6 26.2 12.8 30.8 26.7L380.3 416H214.9l-31.2-31.2 -34.6 31.3c-3 3-8.3 3-11.3 0l-17.5-17.5L126 381.5zM52.7 279.2l36.7 36.7 -8.7 8.7L44 287.9 52.7 279.2zM193 468.3c-7.6 7.5-17.6 11.7-28.3 11.7 -10.7 0-20.7-4.2-28.3-11.7L28.3 360.2c-7.6-7.6-11.7-17.6-11.7-28.3 0-10.7 4.2-20.7 11.7-28.3l4.4-4.4 36.7 36.7 -0.3 0.3c-9.4 9.4-9.4 24.6 0 33.9l57.4 57.4c4.5 4.5 10.6 7 17 7s12.4-2.5 16.7-6.8l0.6-0.5 36.9 36.9L193 468.3zM209.4 453.3l-36.8-36.8 10.6-9.6 36.7 36.7L209.4 453.3z" class="a"/><path d="M471.4 0h-112c-13.2 0-24 10.8-24 24v64c0 13.2 10.8 24 24 24h21.4l-8.3 48.2 77.2-48.2h21.7c13.2 0 24-10.8 24-24V24C495.4 10.8 484.7 0 471.4 0zM479.4 88c0 4.4-3.6 8-8 8h-26.3l-50.8 31.8L399.8 96h-40.3c-4.4 0-8-3.6-8-8V24c0-4.4 3.6-8 8-8h112c4.4 0 8 3.6 8 8V88z" class="a"/><rect x="367.4" y="32" width="96" height="16" class="a"/><rect x="367.4" y="64" width="64" height="16" class="a"/><rect x="447.4" y="64" width="16" height="16" class="a"/><path d="M247.4 24C142.9 24 52.9 96.3 29.5 197.2l-15.2-25.3 -13.7 8.2 28.1 46.9 46.9-28.1 -8.2-13.7 -21.7 13C68.3 105.9 151.3 40 247.4 40c21 0 41.8 3.1 61.6 9.3L313.8 34C292.4 27.4 270.1 24 247.4 24z" class="a"/><path d="M491.5 177.1l-46.9-28.1 -28.1 46.9 13.7 8.2 14-23.3c7.4 21.6 11.1 44.1 11.1 67.2 0 47.6-16.5 94.1-46.4 131l12.4 10.1c32.2-39.7 50-89.8 50-141 0-24.5-3.9-48.4-11.6-71.2l23.5 14.1L491.5 177.1z" class="a"/></svg>
