<svg xmlns="http://www.w3.org/2000/svg" id="Layer_1" viewBox="0 0 772.49998 342.00001" width="150" height="66">
<title>ИнертГаз - продажа и доставка гелия Киев Украина</title>
<style id="style3445">.st0{fill:#404041}.st1{fill:#0aabe1}.st2{font-family:&amp;apos;Arial&amp;apos;;font-weight:700}.st3{font-size:149.4084px}</style>

<g id="g3447" transform="translate(-31.5 -115.2)"><path class="st0" d="M249.9 367.6c-13.1 7.2-28.2 11.4-44.2 11.4-50.7 0-91.9-41.2-91.9-91.9s41.2-91.9 91.9-91.9c35.8 0 66.9 20.6 82.1 50.7h16.4c-16.1-38.5-54.1-65.5-98.5-65.5-58.9 0-106.7 47.8-106.7 106.7 0 58.9 47.8 106.7 106.7 106.7 26.8 0 51.3-9.9 70-26.2h-25.8z" id="path3449" fill="#404041"/><g id="g3451"><path class="st0" d="M332.6 369.1c-27 41.6-73.8 69.2-126.9 69.2-83.4 0-151.2-67.8-151.2-151.2 0-83.4 67.8-151.2 151.2-151.2 69.1 0 127.5 46.6 145.5 110h4.6c-18.1-65.9-78.5-114.4-150.1-114.4C119.9 131.4 50 201.3 50 287.1s69.8 155.6 155.6 155.6c55.7 0 104.7-29.5 132.2-73.6h-5.2z" id="path3453" fill="#404041"/></g><circle class="st0" cx="205.7" cy="438.7" r="18.5" id="circle3455" fill="#404041"/><circle class="st0" cx="205.7" cy="133.7" r="18.5" id="circle3457" fill="#404041"/><circle class="st0" cx="50" cy="288.6" r="18.5" id="circle3459" fill="#404041"/></g><path class="st1" d="M222.9 252.4c-13.1 7.2-28.2 11.4-44.2 11.4-50.7 0-91.9-41.2-91.9-91.9S128 80 178.7 80c35.8 0 66.9 20.6 82.1 50.7h16.4c-16.1-38.5-54.1-65.5-98.5-65.5C119.8 65.2 72 113 72 171.9c0 58.9 47.8 106.7 106.7 106.7 26.8 0 51.3-9.9 70-26.2h-25.8z" id="path3461" fill="#0aabe1"/><g id="g3463" transform="translate(-31.5 -115.2)"><path class="st1" d="M337.1 369.1c-27 41.6-73.8 69.2-126.9 69.2-83.4 0-151.2-67.8-151.2-151.2 0-83.4 67.8-151.2 151.2-151.2 69.1 0 127.5 46.6 145.5 110h4.6c-18.1-65.9-78.5-114.4-150.1-114.4-85.8 0-155.6 69.8-155.6 155.6s69.8 155.6 155.6 155.6c55.7 0 104.7-29.5 132.2-73.6h-5.3z" id="path3465" fill="#0aabe1"/></g><circle class="st1" cx="178.6" cy="323.5" r="18.5" id="circle3467" fill="#0aabe1"/><circle class="st1" cx="178.6" cy="18.5" r="18.5" id="circle3469" fill="#0aabe1"/><circle class="st1" cx="23" cy="173.4" r="18.5" id="circle3471" fill="#0aabe1"/><path class="st0" d="M222.4 227.2h-19.5v-68.3l-46.7 55.9v12.4h-19.5V122.9h19.5v67.7l46.7-55.9v-11.8h19.5v104.3z" id="path3473" fill="#404041"/><path class="st0" d="M261.4 153.3v26.9h31.3v-26.9h17.8v73.9h-17.7v-31.3h-31.3v31.3h-17.7v-73.9h17.6z" id="path3475" fill="#404041"/><path class="st0" d="M343.7 193.8c.3 3.7 3.7 18.3 20.8 18.3 12.6 0 17.9-7.7 19.4-10.2l15.1 8.7c-5.9 8-16.7 18.8-36.1 18.8-22 0-38-15.1-38-39.6 0-26.5 17.9-38.7 37.1-38.7 28.2 0 36.4 22.6 36.4 42.7h-54.7zm35.2-13c-.3-3.7-2.7-15.5-16.6-15.5-14.6 0-17.4 12.6-18 15.5h34.6z" id="path3477" fill="#404041"/><path class="st0" d="M430.2 153.3v6.7c3-3.1 9.2-8.9 20.5-8.9 4.7 0 15.2.9 23.6 10.8 3.8 4.6 9.9 14.2 9.9 29 0 4-.3 15.1-7.4 25-8.7 12.3-20.7 13.6-26.3 13.6-4.4 0-12.3-.9-20.4-8.3v30.1h-17.6v-98h17.7zm17.4 14.3c-12.6 0-17.7 11.8-17.7 22.2 0 12.7 6.2 23.1 18.2 23.1 6.9 0 17.6-4.1 17.6-22.9 0-15.7-9.5-22.4-18.1-22.4z" id="path3479" fill="#404041"/><path class="st0" d="M558.2 153.3V169h-26v58.2h-17.7V169h-26v-15.7h69.7z" id="path3481" fill="#404041"/><path class="st1" d="M673.8 227.2l-.4-5.8c-4.9 3.8-12.7 7.5-21.7 7.5-16.8 0-26.9-10.2-26.9-22.6 0-16.1 12.3-22.5 26.3-25 11.1-2.1 18-3.8 22.8-5.5 0-5.6-1.6-11.1-12.7-11.1-13.4 0-14.9 7.2-14.9 11.1l-18-1c.3-4.9 1.3-23.8 32.4-23.8 21.7 0 31 8 31 21v43.2c0 5.6.3 7.2 3.3 12h-21.2zm0-36.8c-3 1.5-7.2 3.1-14 4.1-8.1 1.2-16.3 2.8-16.3 10.2 0 4.9 3.3 9 12.1 9 8.1 0 18.2-4.1 18.2-13.4v-9.9z" id="path3483" fill="#0aabe1"/><path class="st1" d="M720 201.5c2.7 7.1 7.5 13.7 19.2 13.7 10.9 0 15.5-3.7 15.5-10.5 0-9.3-9.9-9.3-17.7-9.3h-5.9v-13h5.9c8.4 0 17 0 17-9 0-5.5-4.4-8.1-13.7-8.1-5.8 0-14.8 1.9-17 9.5l-16.1-6.8c3.7-7.8 11.4-16.8 33.8-16.8 17.6 0 30.4 6.2 30.4 21 0 7.7-3.4 13.3-14 16.6 5 1.5 15.1 4.6 15.1 17.4 0 13.2-9.2 23.4-32.8 23.4-22.9 0-31.2-10-35.2-20l15.5-8.1z" id="path3485" fill="#0aabe1"/><text class="st1 st2 st3" id="text3487" x="559.12" y="227.23" font-size="149.408" font-family="Arial" fill="#0aabe1">Г</text>
</svg>
