<svg xmlns="http://www.w3.org/2000/svg" viewBox="0 0 772.49998 342.00001" width="770" height="340" class="svg-logo">
    <title>ИнертГаз - продажа и доставка гелия Киев Украина</title>

    <g id="g3339" transform="translate(-28.5 -123.8)">
        <path class="st0" d="M246.9 376.3c-13.1 7.2-28.2 11.4-44.2 11.4-50.7 0-91.9-41.2-91.9-91.9s41.2-91.9 91.9-91.9c35.8 0 66.9 20.6 82.1 50.7h16.4C285 216 247 189 202.7 189 143.8 189 96 236.8 96 295.7c0 58.9 47.8 106.7 106.7 106.7 26.8 0 51.3-9.9 70-26.2h-25.8z" id="path3341" fill="#fff"/>
        <g id="g3343">
            <path class="st0" d="M329.6 377.8c-27 41.6-73.8 69.2-126.9 69.2-83.4 0-151.2-67.8-151.2-151.2 0-83.4 67.8-151.2 151.2-151.2 69.1 0 127.5 46.6 145.5 110h4.6c-18.1-65.9-78.5-114.4-150.1-114.4C116.8 140.1 47 209.9 47 295.8c0 85.9 69.8 155.6 155.6 155.6 55.7 0 104.7-29.5 132.2-73.6h-5.2z" id="path3345" fill="#fff"/>
        </g>
        <circle class="st0" cx="202.7" cy="447.3" r="18.5" id="circle3347" fill="#fff"/>
        <circle class="st0" cx="202.7" cy="142.3" r="18.5" id="circle3349" fill="#fff"/>
        <circle class="st0" cx="47" cy="297.3" r="18.5" id="circle3351" fill="#fff"/>
    </g>

    <path class="st1" d="M222.8 252.5c-13.1 7.2-28.2 11.4-44.2 11.4-50.7 0-91.9-41.2-91.9-91.9s41.2-91.9 91.9-91.9c35.8 0 66.9 20.6 82.1 50.7h16.4c-16.2-38.6-54.2-65.6-98.5-65.6-58.9 0-106.7 47.8-106.7 106.7 0 58.9 47.8 106.7 106.7 106.7 26.8 0 51.3-9.9 70-26.2h-25.8z" id="path3353" fill="#0aabe1"/>

    <g id="g3355" transform="translate(-28.5 -123.8)">
        <path class="st1" d="M334 377.8c-27 41.6-73.8 69.2-126.9 69.2-83.4 0-151.2-67.8-151.2-151.2 0-83.4 67.8-151.2 151.2-151.2 69.1 0 127.5 46.6 145.5 110h4.6c-18.1-65.9-78.5-114.4-150.1-114.4-85.8 0-155.6 69.8-155.6 155.6s69.8 155.6 155.6 155.6c55.7 0 104.7-29.5 132.2-73.6H334z" id="path3357" fill="#0aabe1"/>
    </g>

    <circle class="st1" cx="178.6" cy="323.5" r="18.5" id="circle3359" fill="#0aabe1"/>
    <circle class="st1" cx="178.6" cy="18.5" r="18.5" id="circle3361" fill="#0aabe1"/>
    <circle class="st1" cx="23" cy="173.5" r="18.5" id="circle3363" fill="#0aabe1"/>

    <path class="st0" d="M222.4 227.3h-19.5V159l-46.7 55.9v12.4h-19.5V122.9h19.5v67.7l46.7-55.9v-11.8h19.5v104.4z" id="path3365" fill="#fff"/>
    <path class="st0" d="M261.4 153.4v26.9h31.3v-26.9h17.8v73.9h-17.7V196h-31.3v31.3h-17.7v-73.9h17.6z" id="path3367" fill="#fff"/>
    <path class="st0" d="M343.7 193.9c.3 3.7 3.7 18.3 20.8 18.3 12.6 0 17.9-7.7 19.4-10.2l15.1 8.7c-5.9 8-16.7 18.8-36.1 18.8-22 0-38-15.1-38-39.6 0-26.5 17.9-38.7 37.1-38.7 28.2 0 36.4 22.6 36.4 42.7h-54.7zm35.2-13c-.3-3.7-2.7-15.5-16.6-15.5-14.6 0-17.4 12.6-18 15.5h34.6z" id="path3369" fill="#fff"/>
    <path class="st0" d="M430.2 153.4v6.7c3-3.1 9.2-8.9 20.5-8.9 4.7 0 15.2.9 23.6 10.8 3.8 4.6 9.9 14.2 9.9 29 0 4-.3 15.1-7.4 25-8.7 12.3-20.7 13.6-26.3 13.6-4.4 0-12.3-.9-20.4-8.3v30.1h-17.6v-98h17.7zm17.4 14.3c-12.6 0-17.7 11.8-17.7 22.2 0 12.7 6.2 23.1 18.2 23.1 6.9 0 17.6-4.1 17.6-22.9 0-15.7-9.5-22.4-18.1-22.4z" id="path3371" fill="#fff"/>
    <path class="st0" d="M558.2 153.4v15.7h-26v58.2h-17.7v-58.2h-26v-15.7h69.7z" id="path3373" fill="#fff"/>
    <path class="st1" d="M673.8 227.3l-.4-5.8c-4.9 3.8-12.7 7.5-21.7 7.5-16.8 0-26.9-10.2-26.9-22.6 0-16.1 12.3-22.5 26.3-25 11.1-2.1 18-3.8 22.8-5.5 0-5.6-1.6-11.1-12.7-11.1-13.4 0-14.9 7.2-14.9 11.1l-18-1c.3-4.9 1.3-23.8 32.4-23.8 21.7 0 31 8 31 21v43.2c0 5.6.3 7.2 3.3 12h-21.2zm0-36.8c-3 1.5-7.2 3.1-14 4.1-8.1 1.2-16.3 2.8-16.3 10.2 0 4.9 3.3 9 12.1 9 8.1 0 18.2-4.1 18.2-13.4v-9.9z" id="path3375" fill="#0aabe1"/>
    <path class="st1" d="M720 201.6c2.7 7.1 7.5 13.7 19.2 13.7 10.9 0 15.5-3.7 15.5-10.5 0-9.3-9.9-9.3-17.7-9.3h-5.9v-13h5.9c8.4 0 17 0 17-9 0-5.5-4.4-8.1-13.7-8.1-5.8 0-14.8 1.9-17 9.5l-16.1-6.8c3.7-7.8 11.4-16.8 33.8-16.8 17.6 0 30.4 6.2 30.4 21 0 7.7-3.4 13.3-14 16.6 5 1.5 15.1 4.6 15.1 17.4 0 13.2-9.2 23.4-32.8 23.4-22.9 0-31.2-10-35.2-20l15.5-8.1z" id="path3377" fill="#0aabe1"/>

    <text class="st1 st2 st3" id="text3379" style="-inkscape-font-specification:sans-serif;line-height:128%" x="559.103" y="227.306" font-size="149.408" font-family="sans-serif" fill="#0aabe1" font-weight="700">Г</text>
</svg>
