<svg xmlns="http://www.w3.org/2000/svg" viewBox="0 0 512 512" width="512" height="512"><path d="M468.9 214.6c-11.4 0-20.7 9.3-20.7 20.7v20.8c0 54.3-21.2 105.4-59.7 143.8 -38.4 38.4-89.5 59.5-143.8 59.5 0 0-0.1 0-0.1 0C132.5 459.4 41.3 368.1 41.4 255.9c0-54.3 21.2-105.4 59.7-143.8 38.4-38.4 89.5-59.5 143.8-59.5 0 0 0.1 0 0.1 0 28.7 0 56.5 5.9 82.7 17.6 10.4 4.7 22.7 0 27.3-10.5 4.6-10.4 0-22.7-10.5-27.3 -31.5-14-65-21.2-99.5-21.2 -0.1 0-0.1 0-0.1 0 -65.3 0-126.8 25.4-173 71.6C25.5 129 0 190.5 0 255.9c0 65.4 25.4 126.9 71.6 173.1 46.2 46.3 107.7 71.8 173.1 71.8 0.1 0 0.1 0 0.1 0 65.3 0 126.8-25.4 173-71.6 46.3-46.2 71.8-107.7 71.8-173.1v-20.8C489.6 223.9 480.3 214.6 468.9 214.6z" class="a"/><path d="M505.9 39.8c-8.1-8.1-21.2-8.1-29.2 0L244.8 271.7l-52.6-52.6c-8.1-8.1-21.2-8.1-29.2 0 -8.1 8.1-8.1 21.2 0 29.2l67.2 67.2c4 4 9.3 6.1 14.6 6.1 5.3 0 10.6-2 14.6-6.1L505.9 69.1C514 61 514 47.9 505.9 39.8z" class="a"/></svg>
