<svg xmlns="http://www.w3.org/2000/svg" viewBox="0 0 512 512" width="512" height="512"><path d="M507.7 297.5c-10.3-17.8-33.1-24-51-13.9 -3.2 1.6-44.8 22-79 36.4 -3.8 1.6-5.6 6-4 9.8s6 5.6 9.8 4c35.9-15.1 79.5-36.7 80-36.9 0.1-0.1 0.3-0.1 0.4-0.2 10.7-6.2 24.5-2.5 30.7 8.2 7.2 12.4-4 26.1-9.5 31.6 -37.2 30-140.3 107.1-175 107.1 -38.4 0-146.1-22.8-172.5-28.5v-122.5c52.2-7.7 79.9 2 137.9 22.2 17.6 6.1 37.6 13.1 61.9 20.9 3.6 1.6 13.7 7.2 9.8 20 -2.3 7.8-9.8 15.2-20.8 13.1 -14.8-2.8-101.7-14.6-105.4-15.1 -4.1-0.6-7.9 2.3-8.4 6.4 -0.6 4.1 2.3 7.9 6.4 8.4 0.9 0.1 90.2 12.2 104.6 14.9 2.2 0.4 4.4 0.6 6.5 0.6 15.9 0 27.6-11.4 31.5-24.2 4-13.4-0.2-30.4-18.5-38.2 0 0-0.1 0-0.1 0 0 0 0 0-0.1 0 -0.1 0-0.2-0.1-0.3-0.1s-0.2-0.1-0.3-0.1c-24.3-7.8-44.3-14.7-61.9-20.9 -57.8-20.2-88.3-30.8-142.9-23.1v-6.3c0-4.1-3.4-7.5-7.5-7.5h-22.5v-7.5c0-4.1-3.4-7.5-7.5-7.5H7.5c-4.1 0-7.5 3.4-7.5 7.5v165c0 4.1 3.4 7.5 7.5 7.5 4.1 0 7.5-3.4 7.5-7.5v-157.5h77.7v180H77.7v-7.5c0-4.1-3.4-7.5-7.5-7.5 -4.1 0-7.5 3.4-7.5 7.5v7.5H7.5c-4.1 0-7.5 3.4-7.5 7.5 0 4.1 3.4 7.5 7.5 7.5h92.7c4.1 0 7.5-3.4 7.5-7.5v-7.9h22.5c4.1 0 7.5-3.4 7.5-7.5v-5.3c31.4 6.8 133.5 28.2 172.5 28.2 20.5 0 56.9-18.3 111.1-55.8 39.1-27.1 73.2-54.6 73.6-54.8 0.2-0.2 0.4-0.3 0.6-0.5C511.8 331.2 516.4 312.5 507.7 297.5zM122.7 421.2c0 0 0 0 0 0v7.2H107.7v0V278.8h15V421.2z" class="a"/><path d="M420.3 53.2H190.3c-15.2 0-27.5 12.3-27.5 27.5v130c0 15.2 12.3 27.5 27.5 27.5h230.1c15.2 0 27.5-12.3 27.5-27.5V80.7C447.8 65.6 435.5 53.2 420.3 53.2zM177.8 80.7c0-6.9 5.6-12.5 12.5-12.5h230.1c6.9 0 12.5 5.6 12.5 12.5v2.5H177.8V80.7zM432.8 210.8c0 6.9-5.6 12.5-12.5 12.5H190.3c-6.9 0-12.5-5.6-12.5-12.5v-72.5h255.1V210.8zM177.8 123.3V98.2h255.1v25H177.8z" class="a"/><path d="M270.3 173.3h-70c-4.1 0-7.5 3.4-7.5 7.5 0 4.1 3.4 7.5 7.5 7.5h70c4.1 0 7.5-3.4 7.5-7.5C277.8 176.6 274.4 173.3 270.3 173.3z" class="a"/><path d="M410.3 173.3h-20c-4.1 0-7.5 3.4-7.5 7.5 0 4.1 3.4 7.5 7.5 7.5h20c4.1 0 7.5-3.4 7.5-7.5C417.8 176.6 414.5 173.3 410.3 173.3z" class="a"/></svg>
