<svg xmlns="http://www.w3.org/2000/svg" style="display:none"><symbol id="balloons" viewBox="0 -18 512.00048 512"><path d="M230.367 316.371c3.903-3.91 3.903-10.242 0-14.152-3.91-3.899-10.238-3.899-14.148 0-3.903 3.91-3.903 10.242 0 14.152 3.91 3.899 10.238 3.899 14.148 0zm0 0M234.008 81.004v20c0 33.148 26.851 60 60 60 33.086 0 60.004-26.914 60.004-60v-20c5.523 0 10-4.477 10-10 0-5.524-4.477-10-10-10h-20c-5.524 0-10 4.476-10 10 0 5.523 4.476 10 10 10v20c0 22.055-17.946 40-40.004 40-22.09 0-40-17.902-40-40v-20c5.523 0 10-4.477 10-10 0-5.524-4.477-10-10-10h-20c-5.524 0-10 4.476-10 10 0 5.523 4.476 10 10 10zm0 0"/><path d="M116.219 472.941c1.953 1.95 4.508 2.922 7.066 2.922s5.117-.976 7.07-2.926l30.708-30.707c10.003-9.996 14.82-23.687 13.43-37.523l11.01-10.633c8.74-8.422 20.227-13.062 32.345-13.062h131.664c23.586 0 45.879-9.059 62.77-25.508.25-.242.484-.496.706-.766l89.586-107.578c14.235-16.844 12.106-42.133-4.754-56.383-16.75-14.117-41.851-12.086-56.129 4.477l-9.675 10.008V10c0-5.523-4.48-10-10-10H165.004c-5.52 0-10 4.477-10 10v224.05c-38.727 8.13-69.442 32.169-85.984 67.31-13.047-.676-25.77 4.12-35.211 13.574l-30.864 30.71a10 10 0 0 0-.012 14.164zM412.016 20v205.941l-28.942 29.922c-7.449-9.152-18.8-14.855-31.062-14.855H236.066c-.64 0-1.336-.149-2.035-.43-15.578-6.351-32.074-9.57-49.023-9.57-3.348 0-6.684.12-10 .34V20zM166.437 252.324c20.231-2.926 40.461-1.207 60.083 6.79 3.117 1.257 6.332 1.898 9.546 1.898h115.946c10.843 0 20 8.843 20 20 0 11.027-8.973 20-20 20h-87.004c-5.52 0-10 4.476-10 10 0 5.523 4.48 10 10 10h87.004c22.058 0 40-17.946 40-40 0-1.766-.13-3.52-.356-5.25 2.086-2.137 62.531-64.653 64.625-66.82.153-.16.305-.325.446-.493 7.125-8.414 19.777-9.476 28.195-2.383 8.426 7.121 9.492 19.766 2.328 28.243l-89.285 107.218c-13.09 12.57-30.278 19.485-48.453 19.485H217.848c-17.325 0-33.739 6.625-46.23 18.668l-4.411 4.257a46.554 46.554 0 0 0-6.14-7.566L99.644 314.95a46.697 46.697 0 0 0-11.032-8.16c15.278-30.133 42.567-49.34 77.824-54.465zm-118.5 76.766c10.508-10.524 27.301-10.266 37.563.004l61.43 61.426c10.297 10.277 10.48 27.09-.004 37.562l-23.649 23.645-99.113-98.98zm0 0"/></symbol><symbol id="check" viewBox="0 0 512 512"><path d="M468.9 214.6c-11.4 0-20.7 9.3-20.7 20.7v20.8c0 54.3-21.2 105.4-59.7 143.8-38.4 38.4-89.5 59.5-143.8 59.5h-.1c-112.1 0-203.3-91.3-203.2-203.5 0-54.3 21.2-105.4 59.7-143.8 38.4-38.4 89.5-59.5 143.8-59.5h.1c28.7 0 56.5 5.9 82.7 17.6 10.4 4.7 22.7 0 27.3-10.5 4.6-10.4 0-22.7-10.5-27.3-31.5-14-65-21.2-99.5-21.2h-.1c-65.3 0-126.8 25.4-173 71.6C25.5 129 0 190.5 0 255.9 0 321.3 25.4 382.8 71.6 429c46.2 46.3 107.7 71.8 173.1 71.8h.1c65.3 0 126.8-25.4 173-71.6 46.3-46.2 71.8-107.7 71.8-173.1v-20.8c0-11.4-9.3-20.7-20.7-20.7z" class="a"/><path d="M505.9 39.8c-8.1-8.1-21.2-8.1-29.2 0L244.8 271.7l-52.6-52.6c-8.1-8.1-21.2-8.1-29.2 0-8.1 8.1-8.1 21.2 0 29.2l67.2 67.2c4 4 9.3 6.1 14.6 6.1 5.3 0 10.6-2 14.6-6.1L505.9 69.1c8.1-8.1 8.1-21.2 0-29.3z" class="a"/></symbol><symbol id="delivery" viewBox="0 0 512 512"><path d="M476.2 231.4l-13.3-53c3.6-.8 6.3-4 6.3-7.8V162c0-18.6-15.1-33.7-33.7-33.7h-60.4v-17.7c0-9.1-7.4-16.6-16.6-16.6H50.8c-9.1 0-16.6 7.4-16.6 16.6V256c0 4.4 3.6 8 8 8s8-3.6 8-8V110.6c0-.3.2-.5.5-.5h307.8c.3 0 .5.2.5.5V256c0 4.4 3.6 8 8 8s8-3.6 8-8v-9.1h94.6c11.6 0 21.5 7.6 24.9 18.2h-24.9c-4.4 0-8 3.6-8 8v17.1c0 13.9 11.3 25.1 25.1 25.1h9.1v35.3h-21c-6.9-19.9-25.8-34.2-48-34.2s-41.1 14.3-48 34.2h-3.9v-60.4c0-4.4-3.6-8-8-8s-8 3.6-8 8v60.4H192.8c-6.9-19.9-25.8-34.2-48-34.2s-41.1 14.3-48 34.2h-46c-.3 0-.5-.2-.5-.5v-17.6H85c4.4 0 8-3.6 8-8s-3.6-8-8-8H8c-4.4 0-8 3.6-8 8s3.6 8 8 8h26.2v17.6c0 9.1 7.4 16.6 16.6 16.6h43.3v.5c0 28 22.8 50.8 50.8 50.8s50.8-22.8 50.8-50.8v-.5h180.7v.5c0 28 22.8 50.8 50.8 50.8 28 0 50.8-22.8 50.8-50.8v-.5h26.2c4.4 0 8-3.6 8-8v-85.5c-.2-21.2-15.8-38.8-36-41.8zm-101-87.1h60.4c9.7 0 17.6 7.9 17.6 17.6v.5h-78v-18.1zm0 86.6v-52.4h71.2l13.1 52.4h-84.3zm-230.4 171c-19.2 0-34.7-15.6-34.7-34.7s15.6-34.7 34.7-34.7c19.2 0 34.7 15.6 34.7 34.7s-15.5 34.7-34.7 34.7zm282.2 0c-19.2 0-34.7-15.6-34.7-34.7s15.6-34.7 34.7-34.7c19.2 0 34.7 15.6 34.7 34.7s-15.5 34.7-34.7 34.7zm69-102.6h-9.1c-5 0-9.1-4.1-9.1-9.1v-9.1H496v18.2z" class="a"/><path d="M144.8 350.6c-9.1 0-16.6 7.4-16.6 16.6 0 9.1 7.4 16.6 16.6 16.6 9.1 0 16.6-7.4 16.6-16.6 0-9.2-7.4-16.6-16.6-16.6zM427 350.6c-9.1 0-16.6 7.4-16.6 16.6 0 9.1 7.4 16.6 16.6 16.6 9.1 0 16.6-7.4 16.6-16.6 0-9.2-7.4-16.6-16.6-16.6zM333 316.4H213.2c-4.4 0-8 3.6-8 8s3.6 8 8 8H333c4.4 0 8-3.6 8-8s-3.6-8-8-8zM127.7 282.2H25.1c-4.4 0-8 3.6-8 8s3.6 8 8 8h102.6c4.4 0 8-3.6 8-8s-3.5-8-8-8zM278.8 173.4c-3.1-3.1-8.2-3.1-11.3 0l-71.3 71.3-37.1-37.1c-3.1-3.1-8.2-3.1-11.3 0-3.1 3.1-3.1 8.2 0 11.3l42.8 42.8c1.6 1.6 3.6 2.3 5.7 2.3s4.1-.8 5.7-2.3l77-77c2.9-3.1 2.9-8.2-.2-11.3z" class="a"/></symbol><symbol id="partners" viewBox="0 0 512 512"><path d="M509 355.9l-24.4-24.2c-3.9-3.9-10.3-3.9-14.1.1-3.9 3.9-3.9 10.3.1 14.1l24.4 24.2c2 1.9 4.5 2.9 7 2.9 2.6 0 5.1-1 7.1-3a9.87 9.87 0 0 0-.1-14.1zM459.8 306.9c-3.9-3.9-10.2-3.9-14.1 0-3.9 3.9-3.9 10.2 0 14.1 2 2 4.5 2.9 7.1 2.9 2.6 0 5.1-1 7.1-2.9 3.8-3.9 3.8-10.2-.1-14.1z" class="a"/><path d="M374.5 353l97-97c14.7-14.7 14.7-38.6 0-53.3-5.2-5.2-11.5-8.5-18.2-10.1 2.3-4.9 3.5-10.3 3.5-15.9 0-10.1-3.9-19.5-11-26.7-5.6-5.6-12.6-9.2-20.2-10.5 4.3-13.1 1.3-28.1-9.1-38.5-5.7-5.7-12.8-9.2-20.2-10.5 1.2-3.8 1.9-7.7 1.9-11.8 0-10.1-3.9-19.5-11-26.7-7.1-7.1-16.6-11-26.7-11-6.4 0-12.5 1.6-18 4.6l-1-1c-12.5-13.5-30.3-21.2-48.7-21.2h-78.5c-5.5 0-10 4.5-10 10v13.1c0 5.2.9 10.4 2.6 15.2-4.5-1.9-9.4-2.9-14.5-2.9-10.1 0-19.5 3.9-26.7 11-10.4 10.4-13.4 25.4-9.1 38.5-7.4 1.3-14.5 4.8-20.2 10.5-7.1 7.1-11 16.6-11 26.7 0 4.1.7 8.1 1.9 11.8-7.6 1.3-14.6 4.9-20.2 10.5-11.5 11.5-14 28.6-7.5 42.5-6.8 1.6-13.1 5-18.2 10.1-14.7 14.7-14.7 38.6 0 53.3l20 20-98.5 98.2c-3.9 3.9-3.9 10.2 0 14.1 2 2 4.5 2.9 7.1 2.9s5.1-1 7.1-2.9l99.2-99.2c5.6 3.2 12 4.9 18.6 4.9 10.1 0 19.5-3.9 26.7-11 7.7-7.7 11.4-18 11-28.2h1.5c9.7 0 19.3-3.7 26.7-11 7.1-7.1 11-16.6 11-26.7v-1.5h1.5c9.7 0 19.3-3.7 26.7-11 7.1-7.1 11-16.6 11-26.7v-1.5h1.5c9.7 0 19.3-3.7 26.7-11 13.8-13.8 14.6-35.8 2.5-50.5l66.4-66.4c3.3-3.3 7.8-5.2 12.5-5.2s9.2 1.8 12.5 5.2c3.3 3.3 5.2 7.8 5.2 12.5s-1.8 9.2-5.2 12.5l-9.8 9.8-35.5 35.5c-3.9 3.9-3.9 10.2 0 14.1 2 2 4.5 2.9 7.1 2.9s5.1-1 7.1-2.9l35.5-35.5c6.9-6.9 18.1-6.9 25 0 6.9 6.9 6.9 18.1 0 25l-9.8 9.8-25.7 25.7c-3.9 3.9-3.9 10.2 0 14.1 2 2 4.5 2.9 7.1 2.9s5.1-1 7.1-2.9l25.7-25.7c3.3-3.3 7.8-5.2 12.5-5.2s9.2 1.8 12.5 5.2c3.3 3.3 5.2 7.8 5.2 12.5s-1.8 9.2-5.2 12.5l-13.4 13.4-12.3 12.3c-3.9 3.9-3.9 10.2 0 14.1 2 2 4.5 2.9 7.1 2.9s5.1-1 7.1-2.9l12.3-12.3c6.9-6.9 18.1-6.9 25 0 6.9 6.9 6.9 18.1 0 25l-97 97c-24.4 24.4-56.7 38.5-91.2 39.7-2.5.1-4.9 1.1-6.7 2.9l-89.6 90c-3.9 3.9-3.9 10.2 0 14.1 2 1.9 4.5 2.9 7.1 2.9 2.6 0 5.1-1 7.1-2.9l65.9-66.2c16.7 10.7 36.4 15.9 56.5 14.5l51.6 51.6c2 2 4.5 2.9 7.1 2.9 2.6 0 5.1-1 7.1-2.9 3.9-3.9 3.9-10.2 0-14.1l-54.9-54.9c-2.1-2.1-5-3.1-7.9-2.9l-3.2.3c-14.6 1.2-29.1-2-41.7-9.1l6.4-6.5c37.6-1.9 73.2-17.9 100.2-44.9zm-227.1-66.4c-3.3 3.3-7.8 5.2-12.5 5.2s-9.2-1.8-12.5-5.2l-27-27c-6.9-6.9-6.9-18.1 0-25 3.3-3.3 7.8-5.2 12.5-5.2s9.2 1.8 12.5 5.2l27 27c6.9 6.9 6.9 18.1 0 25zm39.1-39.2c-6.9 6.9-18.1 6.9-25 0l-27-27-13.4-13.4c-6.9-6.9-6.9-18.1 0-25 3.3-3.3 7.8-5.2 12.5-5.2s9.2 1.8 12.5 5.2l40.5 40.5c3.3 3.3 5.2 7.8 5.2 12.5s-1.9 9.1-5.3 12.4zm39.2-39.1c-6.9 6.9-18.1 6.9-25 0L150.4 158c-3.3-3.3-5.2-7.8-5.2-12.5s1.8-9.2 5.2-12.5c3.4-3.4 8-5.2 12.5-5.2s9.1 1.7 12.5 5.2l22.9 22.9 27.4 27.4c3.3 3.3 5.2 7.8 5.2 12.5s-1.9 9.1-5.2 12.5zm39.2-39.2c-6.9 6.9-18.1 6.9-25 0l-50.3-50.3-9.8-9.8c-6.9-6.9-6.9-18.1 0-25 3.4-3.4 8-5.2 12.5-5.2s9.1 1.7 12.5 5.2l60 60c3.3 3.3 5.2 7.8 5.2 12.5 0 4.8-1.8 9.3-5.1 12.6zm2.6-50.7L240 90.9c3.1.7 6.3 1 9.6 1h.2l27.4-.1c5.5 0 10-4.5 10-10s-4.5-10-10-10l-27.4.1h-.1c-6.8 0-13.1-2.6-17.9-7.4-4.8-4.8-7.5-11.2-7.5-18v-3.1h68.5c12.9 0 25.3 5.4 34.1 14.8l.4.4-59.8 59.8z" class="a"/></symbol><symbol id="renewal" viewBox="-19 0 136 136.5"><path d="M21.7 27.7h54.4c1.1 0 1.9-.8 1.9-1.9 0-1-.8-1.8-1.9-1.8H21.7c-1 0-1.9.8-1.9 1.8 0 1.1.9 1.9 1.9 1.9zm0 0" class="a"/><path d="M.3 18.6v112.1c0 3.2 2.6 5.8 5.8 5.8h85.6c3.2 0 5.9-2.6 5.9-5.8V18.6c0-3.2-2.7-5.8-5.9-5.8H63.3C62.4 4.8 55.2-.8 47.2.1c-6.6.8-11.9 6-12.7 12.7H6.1c-3.2 0-5.8 2.6-5.8 5.8zm93.5 112.1c0 1.2-.9 2.1-2.1 2.1H6.1c-1.1 0-2.1-.9-2.1-2.1v-94h89.8zM48.9 3.7c5.3 0 9.8 3.9 10.6 9.1H38.4c.8-5.2 5.2-9.1 10.5-9.1zm42.8 12.8c1.2 0 2.1 1 2.1 2.1V33H4V18.6c0-1.1 1-2.1 2.1-2.1zm0 0" class="a"/><path d="M38 57.3h44.1c1 0 1.8-.9 1.8-1.9 0-1-.8-1.9-1.8-1.9H38c-1.1 0-1.9.9-1.9 1.9 0 1 .8 1.9 1.9 1.9zm0 0M38 76.7h44.1c1 0 1.8-.8 1.8-1.8 0-1.1-.8-1.9-1.8-1.9H38c-1.1 0-1.9.8-1.9 1.9 0 1 .8 1.8 1.9 1.8zm0 0M38 96.2h44.1c1 0 1.8-.9 1.8-1.9 0-1-.8-1.9-1.8-1.9H38c-1.1 0-1.9.9-1.9 1.9 0 1 .8 1.9 1.9 1.9zm0 0M38 115.6h44.1c1 0 1.8-.8 1.8-1.8 0-1.1-.8-1.9-1.8-1.9H38c-1.1 0-1.9.8-1.9 1.9 0 1 .8 1.8 1.9 1.8zm0 0M19.4 58.3c.3.4.7.7 1.2.8h.3c.4 0 .8-.2 1.1-.4l11.9-9.3c.9-.5 1.2-1.7.7-2.6-.5-.9-1.7-1.2-2.6-.7l-.4.4-10.3 8.1-1.8-2.6c-.6-.9-1.8-1.1-2.6-.5-.9.6-1.1 1.8-.5 2.6zm0 0M19.4 77.5c.3.4.7.7 1.2.8h.3c.4 0 .8-.2 1.1-.4l11.9-9.3c.8-.7 1-1.8.4-2.7-.6-.8-1.8-1-2.6-.3h-.1l-10.3 8.1-1.8-2.6c-.5-.9-1.6-1.2-2.5-.8-.9.5-1.3 1.6-.9 2.5.1.2.2.3.3.4zm0 0M19.4 96.7c.3.4.7.7 1.2.8h.3c.4 0 .8-.2 1.1-.4l11.9-9.3c.8-.6 1-1.8.4-2.6s-1.8-1-2.6-.4c0 0-.1 0-.1.1l-10.3 8-1.8-2.5c-.6-.9-1.8-1.1-2.6-.5-.9.6-1.1 1.8-.5 2.6zm0 0M19.4 116.2c.3.4.7.7 1.2.7h.3c.4 0 .8-.1 1.1-.4l11.9-9.2c.9-.6 1.1-1.8.6-2.6-.6-.9-1.7-1.2-2.6-.6-.1.1-.2.1-.3.2l-10.3 8.1-1.8-2.6c-.6-.8-1.8-1-2.6-.4-.9.6-1.1 1.7-.5 2.6zm0 0" class="a"/></symbol><symbol id="repair" viewBox="0 0 569 569.54905"><path d="M1.527 52.246l37.985 66.469a9.488 9.488 0 0 0 5.933 4.5l35.438 8.86 121.543 121.542 13.43-13.426L92.41 116.75a9.47 9.47 0 0 0-4.406-2.5l-34.05-8.543-32.34-56.625L49.34 21.355l56.648 32.372 8.547 34.05a9.47 9.47 0 0 0 2.496 4.414l123.446 123.446 13.425-13.43L132.36 80.664 123.5 45.246a9.511 9.511 0 0 0-4.5-5.945L52.527 1.32a9.496 9.496 0 0 0-11.394 1.527L3.153 40.832a9.495 9.495 0 0 0-1.626 11.414zm0 0M396.313 187.145L187.41 396.05l-13.43-13.43L382.887 173.72zm0 0M150.848 403.441a9.493 9.493 0 0 0-8.141-4.605H85.734a9.486 9.486 0 0 0-8.136 4.605l-28.489 47.477a9.495 9.495 0 0 0 0 9.781l28.489 47.477a9.495 9.495 0 0 0 8.136 4.605h56.973a9.501 9.501 0 0 0 8.14-4.605l28.485-47.477a9.495 9.495 0 0 0 0-9.781zm-13.512 90.348H91.109L68.32 455.81l22.79-37.985h46.226l22.789 37.985zm0 0"/><path d="M456.063 227.914c62.714.211 113.73-50.46 113.94-113.176a113.589 113.589 0 0 0-3.487-28.308c-1.266-5.09-6.418-8.188-11.508-6.922a9.522 9.522 0 0 0-4.414 2.496l-59.11 59.07-46.898-15.629-15.64-46.886 59.109-59.121a9.495 9.495 0 0 0-4.453-15.934c-60.82-15.402-122.606 21.414-138.008 82.23a113.327 113.327 0 0 0-3.477 28.23c.024 7.477.793 14.93 2.309 22.25L136.469 344.169a112.023 112.023 0 0 0-22.246-2.309C51.289 341.86.273 392.875.273 455.81c0 62.93 51.016 113.945 113.95 113.945 62.93 0 113.945-51.016 113.945-113.945a111.742 111.742 0 0 0-2.309-22.25l49.786-49.786 21.773 21.774a9.499 9.499 0 0 0 13.43 0l4.746-4.75c4.164-4.137 10.894-4.137 15.058 0 4.16 4.148 4.168 10.883.02 15.043l-.02.02-4.746 4.745c-3.707 3.707-3.707 9.72 0 13.426L439.18 547.305c29.793 30.066 78.316 30.285 108.382.492 30.063-29.793 30.282-78.32.489-108.383-.16-.164-.324-.328-.489-.492L434.29 325.652c-3.707-3.707-9.719-3.707-13.426 0l-4.746 4.746c-4.168 4.141-10.894 4.141-15.062 0-4.157-4.148-4.168-10.882-.02-15.039.008-.007.016-.011.02-.02l4.75-4.75c3.707-3.706 3.707-9.718 0-13.425l-21.774-21.773 49.785-49.786a111.733 111.733 0 0 0 22.247 2.31zm37.308 322.852a57.7 57.7 0 0 1-20.195-3.684l74.16-74.164c11.191 29.77-3.867 62.973-33.637 74.164a57.6 57.6 0 0 1-20.328 3.684zM385.797 303.973c-10.516 12.543-8.867 31.238 3.676 41.75 11.023 9.238 27.09 9.23 38.101-.028l106.563 106.657c1.156 1.16 2.238 2.382 3.285 3.625l-81.188 81.187a55.28 55.28 0 0 1-3.629-3.285L345.961 427.227c10.516-12.543 8.867-31.239-3.676-41.75-11.023-9.243-27.094-9.23-38.105.023l-15.192-15.191 81.614-81.493zm38.344-95.504L208.73 423.836a9.51 9.51 0 0 0-2.508 9.023c13.027 51.16-17.887 103.196-69.051 116.22-51.16 13.026-103.195-17.888-116.223-69.052-13.023-51.16 17.89-103.195 69.055-116.222a95.649 95.649 0 0 1 47.168 0 9.58 9.58 0 0 0 9.023-2.504l215.36-215.371a9.49 9.49 0 0 0 2.496-9.02c-12.938-50.562 17.562-102.039 68.125-114.98a94.55 94.55 0 0 1 29.281-2.766l-50.09 50.11a9.487 9.487 0 0 0-2.297 9.71l18.989 56.977a9.504 9.504 0 0 0 6.011 6l56.977 18.992a9.496 9.496 0 0 0 9.71-2.289l50.09-50.09a86.32 86.32 0 0 1 .173 5.39c.265 52.177-41.813 94.688-93.989 94.958a94.602 94.602 0 0 1-23.918-2.953 9.504 9.504 0 0 0-9.023 2.496h.05zm0 0"/><path d="M491.273 477.578l-13.43 13.43-94.952-94.953 13.425-13.43zm0 0"/></symbol><symbol id="selling" viewBox="0 0 512 512"><path d="M507.7 297.5c-10.3-17.8-33.1-24-51-13.9-3.2 1.6-44.8 22-79 36.4-3.8 1.6-5.6 6-4 9.8s6 5.6 9.8 4c35.9-15.1 79.5-36.7 80-36.9.1-.1.3-.1.4-.2 10.7-6.2 24.5-2.5 30.7 8.2 7.2 12.4-4 26.1-9.5 31.6-37.2 30-140.3 107.1-175 107.1-38.4 0-146.1-22.8-172.5-28.5V292.6c52.2-7.7 79.9 2 137.9 22.2 17.6 6.1 37.6 13.1 61.9 20.9 3.6 1.6 13.7 7.2 9.8 20-2.3 7.8-9.8 15.2-20.8 13.1-14.8-2.8-101.7-14.6-105.4-15.1-4.1-.6-7.9 2.3-8.4 6.4-.6 4.1 2.3 7.9 6.4 8.4.9.1 90.2 12.2 104.6 14.9 2.2.4 4.4.6 6.5.6 15.9 0 27.6-11.4 31.5-24.2 4-13.4-.2-30.4-18.5-38.2h-.1-.1c-.1 0-.2-.1-.3-.1s-.2-.1-.3-.1c-24.3-7.8-44.3-14.7-61.9-20.9-57.8-20.2-88.3-30.8-142.9-23.1v-6.3c0-4.1-3.4-7.5-7.5-7.5h-22.5v-7.5c0-4.1-3.4-7.5-7.5-7.5H7.5c-4.1 0-7.5 3.4-7.5 7.5v165c0 4.1 3.4 7.5 7.5 7.5s7.5-3.4 7.5-7.5V263.6h77.7v180h-15v-7.5c0-4.1-3.4-7.5-7.5-7.5s-7.5 3.4-7.5 7.5v7.5H7.5c-4.1 0-7.5 3.4-7.5 7.5s3.4 7.5 7.5 7.5h92.7c4.1 0 7.5-3.4 7.5-7.5v-7.9h22.5c4.1 0 7.5-3.4 7.5-7.5v-5.3c31.4 6.8 133.5 28.2 172.5 28.2 20.5 0 56.9-18.3 111.1-55.8 39.1-27.1 73.2-54.6 73.6-54.8.2-.2.4-.3.6-.5 16.3-16.3 20.9-35 12.2-50zm-385 123.7v7.2h-15V278.8h15v142.4zM420.3 53.2h-230c-15.2 0-27.5 12.3-27.5 27.5v130c0 15.2 12.3 27.5 27.5 27.5h230.1c15.2 0 27.5-12.3 27.5-27.5v-130c-.1-15.1-12.4-27.5-27.6-27.5zM177.8 80.7c0-6.9 5.6-12.5 12.5-12.5h230.1c6.9 0 12.5 5.6 12.5 12.5v2.5H177.8v-2.5zm255 130.1c0 6.9-5.6 12.5-12.5 12.5h-230c-6.9 0-12.5-5.6-12.5-12.5v-72.5h255.1v72.5zm-255-87.5V98.2h255.1v25H177.8z" class="a"/><path d="M270.3 173.3h-70c-4.1 0-7.5 3.4-7.5 7.5s3.4 7.5 7.5 7.5h70c4.1 0 7.5-3.4 7.5-7.5 0-4.2-3.4-7.5-7.5-7.5zM410.3 173.3h-20c-4.1 0-7.5 3.4-7.5 7.5s3.4 7.5 7.5 7.5h20c4.1 0 7.5-3.4 7.5-7.5 0-4.2-3.3-7.5-7.5-7.5z" class="a"/></symbol><symbol id="shipping" viewBox="0 0 512 512"><path d="M156 370c-5.5 0-10 4.5-10 10s4.5 10 10 10 10-4.5 10-10-4.5-10-10-10z" class="a"/><path d="M450.1 190l58.9-58.9c2.5-2.5 3.5-6.1 2.6-9.5-.8-3.4-3.4-6.1-6.8-7.1L361.5 70.2C348.6 28.6 310.1 0 266 0c-41 0-77.6 25-92.8 62.6L7 114.5c-3.3 1-5.9 3.8-6.7 7.2-.8 3.4.2 7 2.6 9.5l60.5 60.5-38.1 63.6c-1.6 2.6-1.9 5.8-.8 8.6 1.1 2.8 3.3 5.1 6.2 6L86 288.3v153.8c0 4.2 2.6 7.9 6.5 9.4 33.8 12.7 159.5 59.8 160.2 60.1 2 .7 4.2.8 6.4.1h.1l180-60c4.1-1.4 6.8-5.2 6.8-9.5V284.3l59-18.5c3.3-1 5.9-3.8 6.7-7.2.8-3.4-.2-7-2.6-9.5l-59-59.1zM366 100c0-2.5-.1-5.1-.3-7.6l117.5 36.3-49.9 49.9-81.5-27.2C361 136 366 118.2 366 100zM190.3 74c11.1-32.3 41.5-54 75.7-54 36.8 0 68.7 24.9 77.6 60.5 1.6 6.3 2.4 12.9 2.4 19.5 0 18.6-6.2 36-17.8 50.4-15.3 18.8-37.9 29.6-62.2 29.6-26.2 0-50.8-12.9-65.7-34.4C191 132.2 186 116.4 186 100c0-8.9 1.5-17.7 4.3-26zM28.8 128.6l138.3-43.1c-.7 4.8-1.1 9.6-1.1 14.5 0 16.1 3.8 31.7 11.1 45.8l-98.4 32.8-49.9-50zm20 126.1L80.4 202 241 255.5l-31.6 52.7c-17.2-5.7-142.3-47.4-160.6-53.5zM246 487.6l-140-52.5V294.9c110.2 36.5 104.8 35.4 107.8 35.4 3.4 0 6.7-1.8 8.6-4.9l23.6-39.3v201.5zm10-248.1L107.6 190l80.8-26.9c18.9 23.2 47.4 36.9 77.6 36.9 27.9 0 54.2-11.5 73.1-31.8l65.3 21.8L256 239.5zm170 195.3l-160 53.3V278.5l35.5 44.3c2.6 3.2 6.9 4.5 10.8 3.3L426 290.4v144.4zM312.8 305l-40-50 160.5-53.5 50 50L312.8 305z" class="a"/><path d="M219.5 392.2l-22.2-8.3c-5.2-1.9-10.9.7-12.9 5.9-1.9 5.2.7 10.9 5.9 12.9l22.2 8.3c5.2 1.9 10.9-.7 12.9-5.9 1.9-5.2-.7-11-5.9-12.9zM219.5 434.9l-60-22.5c-5.2-1.9-10.9.7-12.9 5.9-1.9 5.2.7 10.9 5.9 12.9l60 22.5c1.2.4 2.3.6 3.5.6 4 0 7.9-2.5 9.4-6.5 1.9-5.2-.7-10.9-5.9-12.9zM323.1 62.9c-3.9-3.9-10.2-3.9-14.1 0l-52.9 52.9-12.9-12.9c-3.9-3.9-10.2-3.9-14.1 0-3.9 3.9-3.9 10.2 0 14.1l20 20c3.9 3.9 10.2 3.9 14.1 0l60-60c3.8-3.8 3.8-10.2-.1-14.1z" class="a"/></symbol><symbol id="support" viewBox="0 0 496 496"><path d="M402.5 432L384 376.4c-6.5-19.4-23-33.7-43.1-37.4l-53.5-9.7v-4.1c9.3-5.4 17.4-12.6 23.8-21.2h16.2c13.2 0 24-10.8 24-24v-96c0-57.3-46.7-104-104-104s-104 46.7-104 104v56c0 15.4 11 28.3 25.5 31.3 4.5 23 18.9 42.4 38.5 53.8v4.1l-53.5 9.7c-20.1 3.7-36.6 18-43.1 37.4l-3.2 9.6-27.2-27.2c-3.1-3.1-3.1-8.2 0-11.3l31.6-31.6-59.3-59.3L17 292.3C6.4 302.9.6 316.9.6 331.9s5.8 29 16.4 39.6l108.1 108.1c10.6 10.6 24.6 16.4 39.6 16.4s29-5.8 39.3-16.2l39-35.7-12.1-12.1h171.6zm-67.1-152c0 4.4-3.6 8-8 8h-6.7c2.3-5.3 4.1-10.9 5.2-16.7 3.4-.7 6.6-2.1 9.5-3.8V280zm-8-26.2v-27.6c4.8 2.8 8 7.9 8 13.8s-3.2 11-8 13.8zm-160 0c-4.8-2.8-8-7.9-8-13.8s3.2-11 8-13.8v27.6zm0-53.8v9.1c-2.8.7-5.5 1.9-8 3.3V184c0-48.5 39.5-88 88-88s88 39.5 88 88v28.4c-2.5-1.4-5.2-2.6-8-3.3V200h-8c-23.7 0-45.9-9.2-62.6-25.9l-9.4-9.4-9.4 9.4c-16.7 16.7-38.9 25.9-62.6 25.9h-8zm16 56v-40.3c24-1.8 46.4-11.7 64-28.4 17.6 16.7 40 26.6 64 28.4V256c0 11.7-3.2 22.6-8.7 32h-55.3v16h42.2c-11.3 9.9-26 16-42.2 16-35.3 0-64-28.7-64-64zm88 76.3v.4l-24 24-24-24v-.4c7.6 2.4 15.6 3.7 24 3.7s16.4-1.3 24-3.7zM126 381.5c4.6-13.9 16.4-24.1 30.8-26.7l55.9-10.2 34.7 34.7 34.7-34.7 55.9 10.2c14.4 2.6 26.2 12.8 30.8 26.7l11.5 34.5H214.9l-31.2-31.2-34.6 31.3c-3 3-8.3 3-11.3 0l-17.5-17.5 5.7-17.1zM52.7 279.2l36.7 36.7-8.7 8.7L44 287.9l8.7-8.7zM193 468.3c-7.6 7.5-17.6 11.7-28.3 11.7s-20.7-4.2-28.3-11.7L28.3 360.2c-7.6-7.6-11.7-17.6-11.7-28.3s4.2-20.7 11.7-28.3l4.4-4.4 36.7 36.7-.3.3c-9.4 9.4-9.4 24.6 0 33.9l57.4 57.4c4.5 4.5 10.6 7 17 7s12.4-2.5 16.7-6.8l.6-.5 36.9 36.9-4.7 4.2zm16.4-15l-36.8-36.8 10.6-9.6 36.7 36.7-10.5 9.7zM471.4 0h-112c-13.2 0-24 10.8-24 24v64c0 13.2 10.8 24 24 24h21.4l-8.3 48.2 77.2-48.2h21.7c13.2 0 24-10.8 24-24V24c0-13.2-10.7-24-24-24zm8 88c0 4.4-3.6 8-8 8h-26.3l-50.8 31.8 5.5-31.8h-40.3c-4.4 0-8-3.6-8-8V24c0-4.4 3.6-8 8-8h112c4.4 0 8 3.6 8 8v64z" class="a"/><path class="a" d="M367.4 32h96v16h-96zM367.4 64h64v16h-64zM447.4 64h16v16h-16zM247.4 24C142.9 24 52.9 96.3 29.5 197.2l-15.2-25.3-13.7 8.2L28.7 227l46.9-28.1-8.2-13.7-21.7 13C68.3 105.9 151.3 40 247.4 40c21 0 41.8 3.1 61.6 9.3l4.8-15.3c-21.4-6.6-43.7-10-66.4-10zM491.5 177.1L444.6 149l-28.1 46.9 13.7 8.2 14-23.3c7.4 21.6 11.1 44.1 11.1 67.2 0 47.6-16.5 94.1-46.4 131l12.4 10.1c32.2-39.7 50-89.8 50-141 0-24.5-3.9-48.4-11.6-71.2l23.5 14.1 8.3-13.9z"/></symbol></svg>